<mxfile host="Electron" modified="2023-09-27T05:46:59.466Z" agent="Mozilla/5.0 (Windows NT 10.0; Win64; x64) AppleWebKit/537.36 (KHTML, like Gecko) draw.io/21.7.5 Chrome/114.0.5735.289 Electron/25.8.1 Safari/537.36" etag="uL5TJYhCLieMMzCHfsEj" version="21.7.5" type="device">
  <diagram id="C5RBs43oDa-KdzZeNtuy" name="Page-1">
    <mxGraphModel dx="1727" dy="1115" grid="1" gridSize="10" guides="1" tooltips="1" connect="1" arrows="1" fold="1" page="1" pageScale="1" pageWidth="827" pageHeight="1169" math="0" shadow="0">
      <root>
        <mxCell id="WIyWlLk6GJQsqaUBKTNV-0" />
        <mxCell id="WIyWlLk6GJQsqaUBKTNV-1" parent="WIyWlLk6GJQsqaUBKTNV-0" />
        <mxCell id="Q12DMWRrF-jDYy9Bow8n-59" value="" style="edgeStyle=orthogonalEdgeStyle;rounded=0;orthogonalLoop=1;jettySize=auto;html=1;" edge="1" parent="WIyWlLk6GJQsqaUBKTNV-1" source="Rb-lbBpFjrk857He8v0L-0" target="Rb-lbBpFjrk857He8v0L-1">
          <mxGeometry relative="1" as="geometry" />
        </mxCell>
        <mxCell id="Rb-lbBpFjrk857He8v0L-0" value="start" style="ellipse;whiteSpace=wrap;html=1;" parent="WIyWlLk6GJQsqaUBKTNV-1" vertex="1">
          <mxGeometry x="279" y="80" width="120" height="80" as="geometry" />
        </mxCell>
        <mxCell id="Rb-lbBpFjrk857He8v0L-20" value="" style="edgeStyle=orthogonalEdgeStyle;rounded=0;orthogonalLoop=1;jettySize=auto;html=1;" parent="WIyWlLk6GJQsqaUBKTNV-1" source="Rb-lbBpFjrk857He8v0L-1" target="Rb-lbBpFjrk857He8v0L-18" edge="1">
          <mxGeometry relative="1" as="geometry" />
        </mxCell>
        <mxCell id="Rb-lbBpFjrk857He8v0L-1" value="int hargaPermalam, jmlMalam, biayaTambahan, totalbiaya,biayatambahan" style="shape=hexagon;perimeter=hexagonPerimeter2;whiteSpace=wrap;html=1;fixedSize=1;" parent="WIyWlLk6GJQsqaUBKTNV-1" vertex="1">
          <mxGeometry x="224" y="220" width="230" height="80" as="geometry" />
        </mxCell>
        <mxCell id="Rb-lbBpFjrk857He8v0L-14" value="" style="edgeStyle=orthogonalEdgeStyle;rounded=0;orthogonalLoop=1;jettySize=auto;html=1;" parent="WIyWlLk6GJQsqaUBKTNV-1" source="Rb-lbBpFjrk857He8v0L-11" target="Rb-lbBpFjrk857He8v0L-13" edge="1">
          <mxGeometry relative="1" as="geometry" />
        </mxCell>
        <mxCell id="Q12DMWRrF-jDYy9Bow8n-18" value="" style="edgeStyle=orthogonalEdgeStyle;rounded=0;orthogonalLoop=1;jettySize=auto;html=1;" edge="1" parent="WIyWlLk6GJQsqaUBKTNV-1" source="Rb-lbBpFjrk857He8v0L-11" target="Q12DMWRrF-jDYy9Bow8n-5">
          <mxGeometry relative="1" as="geometry" />
        </mxCell>
        <mxCell id="Rb-lbBpFjrk857He8v0L-11" value="case value 1" style="rhombus;whiteSpace=wrap;html=1;" parent="WIyWlLk6GJQsqaUBKTNV-1" vertex="1">
          <mxGeometry x="300" y="470" width="80" height="80" as="geometry" />
        </mxCell>
        <mxCell id="Rb-lbBpFjrk857He8v0L-16" value="" style="edgeStyle=orthogonalEdgeStyle;rounded=0;orthogonalLoop=1;jettySize=auto;html=1;" parent="WIyWlLk6GJQsqaUBKTNV-1" source="Rb-lbBpFjrk857He8v0L-13" target="Rb-lbBpFjrk857He8v0L-15" edge="1">
          <mxGeometry relative="1" as="geometry" />
        </mxCell>
        <mxCell id="Q12DMWRrF-jDYy9Bow8n-20" value="" style="edgeStyle=orthogonalEdgeStyle;rounded=0;orthogonalLoop=1;jettySize=auto;html=1;" edge="1" parent="WIyWlLk6GJQsqaUBKTNV-1" source="Rb-lbBpFjrk857He8v0L-13" target="Q12DMWRrF-jDYy9Bow8n-5">
          <mxGeometry relative="1" as="geometry" />
        </mxCell>
        <mxCell id="Rb-lbBpFjrk857He8v0L-13" value="case value 2" style="rhombus;whiteSpace=wrap;html=1;" parent="WIyWlLk6GJQsqaUBKTNV-1" vertex="1">
          <mxGeometry x="300" y="600" width="80" height="80" as="geometry" />
        </mxCell>
        <mxCell id="Q12DMWRrF-jDYy9Bow8n-52" value="" style="edgeStyle=orthogonalEdgeStyle;rounded=0;orthogonalLoop=1;jettySize=auto;html=1;" edge="1" parent="WIyWlLk6GJQsqaUBKTNV-1" source="Rb-lbBpFjrk857He8v0L-15" target="Q12DMWRrF-jDYy9Bow8n-5">
          <mxGeometry relative="1" as="geometry" />
        </mxCell>
        <mxCell id="Rb-lbBpFjrk857He8v0L-15" value="case value 3" style="rhombus;whiteSpace=wrap;html=1;" parent="WIyWlLk6GJQsqaUBKTNV-1" vertex="1">
          <mxGeometry x="300" y="760" width="80" height="80" as="geometry" />
        </mxCell>
        <mxCell id="Rb-lbBpFjrk857He8v0L-21" value="" style="edgeStyle=orthogonalEdgeStyle;rounded=0;orthogonalLoop=1;jettySize=auto;html=1;" parent="WIyWlLk6GJQsqaUBKTNV-1" source="Rb-lbBpFjrk857He8v0L-18" target="Rb-lbBpFjrk857He8v0L-11" edge="1">
          <mxGeometry relative="1" as="geometry" />
        </mxCell>
        <mxCell id="Rb-lbBpFjrk857He8v0L-18" value="&amp;nbsp;input tipe kamar" style="shape=parallelogram;perimeter=parallelogramPerimeter;whiteSpace=wrap;html=1;fixedSize=1;" parent="WIyWlLk6GJQsqaUBKTNV-1" vertex="1">
          <mxGeometry x="220" y="350" width="240" height="60" as="geometry" />
        </mxCell>
        <mxCell id="Q12DMWRrF-jDYy9Bow8n-34" value="" style="edgeStyle=orthogonalEdgeStyle;rounded=0;orthogonalLoop=1;jettySize=auto;html=1;" edge="1" parent="WIyWlLk6GJQsqaUBKTNV-1" source="Rb-lbBpFjrk857He8v0L-22" target="Q12DMWRrF-jDYy9Bow8n-31">
          <mxGeometry relative="1" as="geometry" />
        </mxCell>
        <mxCell id="Rb-lbBpFjrk857He8v0L-22" value="totalbiaya = jmlMalam* 100000 + biayatambahan" style="whiteSpace=wrap;html=1;" parent="WIyWlLk6GJQsqaUBKTNV-1" vertex="1">
          <mxGeometry x="610" y="1140" width="200" height="60" as="geometry" />
        </mxCell>
        <mxCell id="Q12DMWRrF-jDYy9Bow8n-36" value="" style="edgeStyle=orthogonalEdgeStyle;rounded=0;orthogonalLoop=1;jettySize=auto;html=1;" edge="1" parent="WIyWlLk6GJQsqaUBKTNV-1" source="Rb-lbBpFjrk857He8v0L-24" target="Q12DMWRrF-jDYy9Bow8n-33">
          <mxGeometry relative="1" as="geometry" />
        </mxCell>
        <mxCell id="Rb-lbBpFjrk857He8v0L-24" value="totalbiaya = jmlMalam * 150000 + biayatambahan" style="whiteSpace=wrap;html=1;" parent="WIyWlLk6GJQsqaUBKTNV-1" vertex="1">
          <mxGeometry x="1041" y="1140" width="200" height="60" as="geometry" />
        </mxCell>
        <mxCell id="Q12DMWRrF-jDYy9Bow8n-35" value="" style="edgeStyle=orthogonalEdgeStyle;rounded=0;orthogonalLoop=1;jettySize=auto;html=1;" edge="1" parent="WIyWlLk6GJQsqaUBKTNV-1" source="Rb-lbBpFjrk857He8v0L-26" target="Q12DMWRrF-jDYy9Bow8n-32">
          <mxGeometry relative="1" as="geometry" />
        </mxCell>
        <mxCell id="Rb-lbBpFjrk857He8v0L-26" value="totalbiaya = jmlMalam * 200000 + biayatambahan" style="whiteSpace=wrap;html=1;" parent="WIyWlLk6GJQsqaUBKTNV-1" vertex="1">
          <mxGeometry x="820" y="1140" width="200" height="60" as="geometry" />
        </mxCell>
        <mxCell id="Q12DMWRrF-jDYy9Bow8n-44" value="" style="edgeStyle=orthogonalEdgeStyle;rounded=0;orthogonalLoop=1;jettySize=auto;html=1;" edge="1" parent="WIyWlLk6GJQsqaUBKTNV-1" source="Rb-lbBpFjrk857He8v0L-28" target="Q12DMWRrF-jDYy9Bow8n-17">
          <mxGeometry relative="1" as="geometry" />
        </mxCell>
        <mxCell id="Rb-lbBpFjrk857He8v0L-28" value="print result" style="shape=parallelogram;perimeter=parallelogramPerimeter;whiteSpace=wrap;html=1;fixedSize=1;" parent="WIyWlLk6GJQsqaUBKTNV-1" vertex="1">
          <mxGeometry x="650" y="1370" width="120" height="60" as="geometry" />
        </mxCell>
        <mxCell id="Q12DMWRrF-jDYy9Bow8n-8" value="" style="edgeStyle=orthogonalEdgeStyle;rounded=0;orthogonalLoop=1;jettySize=auto;html=1;" edge="1" parent="WIyWlLk6GJQsqaUBKTNV-1" source="Q12DMWRrF-jDYy9Bow8n-5" target="Q12DMWRrF-jDYy9Bow8n-7">
          <mxGeometry relative="1" as="geometry" />
        </mxCell>
        <mxCell id="Q12DMWRrF-jDYy9Bow8n-5" value="input tambahan" style="shape=parallelogram;perimeter=parallelogramPerimeter;whiteSpace=wrap;html=1;fixedSize=1;" vertex="1" parent="WIyWlLk6GJQsqaUBKTNV-1">
          <mxGeometry x="420" y="610" width="180" height="60" as="geometry" />
        </mxCell>
        <mxCell id="Q12DMWRrF-jDYy9Bow8n-10" value="" style="edgeStyle=orthogonalEdgeStyle;rounded=0;orthogonalLoop=1;jettySize=auto;html=1;" edge="1" parent="WIyWlLk6GJQsqaUBKTNV-1" source="Q12DMWRrF-jDYy9Bow8n-7" target="Q12DMWRrF-jDYy9Bow8n-9">
          <mxGeometry relative="1" as="geometry" />
        </mxCell>
        <mxCell id="Q12DMWRrF-jDYy9Bow8n-12" value="" style="edgeStyle=orthogonalEdgeStyle;rounded=0;orthogonalLoop=1;jettySize=auto;html=1;" edge="1" parent="WIyWlLk6GJQsqaUBKTNV-1" source="Q12DMWRrF-jDYy9Bow8n-7" target="Q12DMWRrF-jDYy9Bow8n-11">
          <mxGeometry relative="1" as="geometry" />
        </mxCell>
        <mxCell id="Q12DMWRrF-jDYy9Bow8n-7" value="ingin tambahan?" style="rhombus;whiteSpace=wrap;html=1;" vertex="1" parent="WIyWlLk6GJQsqaUBKTNV-1">
          <mxGeometry x="845" y="730" width="150" height="120" as="geometry" />
        </mxCell>
        <mxCell id="Q12DMWRrF-jDYy9Bow8n-55" value="" style="edgeStyle=orthogonalEdgeStyle;rounded=0;orthogonalLoop=1;jettySize=auto;html=1;" edge="1" parent="WIyWlLk6GJQsqaUBKTNV-1" source="Q12DMWRrF-jDYy9Bow8n-9" target="Q12DMWRrF-jDYy9Bow8n-53">
          <mxGeometry relative="1" as="geometry" />
        </mxCell>
        <mxCell id="Q12DMWRrF-jDYy9Bow8n-9" value="tidak&amp;nbsp;" style="shape=parallelogram;perimeter=parallelogramPerimeter;whiteSpace=wrap;html=1;fixedSize=1;" vertex="1" parent="WIyWlLk6GJQsqaUBKTNV-1">
          <mxGeometry x="1020" y="880" width="150" height="60" as="geometry" />
        </mxCell>
        <mxCell id="Q12DMWRrF-jDYy9Bow8n-54" value="" style="edgeStyle=orthogonalEdgeStyle;rounded=0;orthogonalLoop=1;jettySize=auto;html=1;" edge="1" parent="WIyWlLk6GJQsqaUBKTNV-1" source="Q12DMWRrF-jDYy9Bow8n-11" target="Q12DMWRrF-jDYy9Bow8n-53">
          <mxGeometry relative="1" as="geometry" />
        </mxCell>
        <mxCell id="Q12DMWRrF-jDYy9Bow8n-11" value="tambahan laundry, sarapan" style="shape=parallelogram;perimeter=parallelogramPerimeter;whiteSpace=wrap;html=1;fixedSize=1;" vertex="1" parent="WIyWlLk6GJQsqaUBKTNV-1">
          <mxGeometry x="680" y="880" width="140" height="60" as="geometry" />
        </mxCell>
        <mxCell id="Q12DMWRrF-jDYy9Bow8n-17" value="Selesai" style="ellipse;whiteSpace=wrap;html=1;" vertex="1" parent="WIyWlLk6GJQsqaUBKTNV-1">
          <mxGeometry x="650" y="1490" width="120" height="80" as="geometry" />
        </mxCell>
        <mxCell id="Q12DMWRrF-jDYy9Bow8n-38" value="" style="edgeStyle=orthogonalEdgeStyle;rounded=0;orthogonalLoop=1;jettySize=auto;html=1;" edge="1" parent="WIyWlLk6GJQsqaUBKTNV-1" source="Q12DMWRrF-jDYy9Bow8n-31" target="Rb-lbBpFjrk857He8v0L-28">
          <mxGeometry relative="1" as="geometry" />
        </mxCell>
        <mxCell id="Q12DMWRrF-jDYy9Bow8n-31" value="" style="ellipse;whiteSpace=wrap;html=1;aspect=fixed;" vertex="1" parent="WIyWlLk6GJQsqaUBKTNV-1">
          <mxGeometry x="670" y="1260" width="80" height="80" as="geometry" />
        </mxCell>
        <mxCell id="Q12DMWRrF-jDYy9Bow8n-41" value="" style="edgeStyle=orthogonalEdgeStyle;rounded=0;orthogonalLoop=1;jettySize=auto;html=1;" edge="1" parent="WIyWlLk6GJQsqaUBKTNV-1" source="Q12DMWRrF-jDYy9Bow8n-32" target="Q12DMWRrF-jDYy9Bow8n-39">
          <mxGeometry relative="1" as="geometry" />
        </mxCell>
        <mxCell id="Q12DMWRrF-jDYy9Bow8n-32" value="" style="ellipse;whiteSpace=wrap;html=1;aspect=fixed;" vertex="1" parent="WIyWlLk6GJQsqaUBKTNV-1">
          <mxGeometry x="880" y="1260" width="80" height="80" as="geometry" />
        </mxCell>
        <mxCell id="Q12DMWRrF-jDYy9Bow8n-42" value="" style="edgeStyle=orthogonalEdgeStyle;rounded=0;orthogonalLoop=1;jettySize=auto;html=1;" edge="1" parent="WIyWlLk6GJQsqaUBKTNV-1" source="Q12DMWRrF-jDYy9Bow8n-33" target="Q12DMWRrF-jDYy9Bow8n-40">
          <mxGeometry relative="1" as="geometry" />
        </mxCell>
        <mxCell id="Q12DMWRrF-jDYy9Bow8n-33" value="" style="ellipse;whiteSpace=wrap;html=1;aspect=fixed;" vertex="1" parent="WIyWlLk6GJQsqaUBKTNV-1">
          <mxGeometry x="1101" y="1260" width="80" height="80" as="geometry" />
        </mxCell>
        <mxCell id="Q12DMWRrF-jDYy9Bow8n-47" value="" style="edgeStyle=orthogonalEdgeStyle;rounded=0;orthogonalLoop=1;jettySize=auto;html=1;" edge="1" parent="WIyWlLk6GJQsqaUBKTNV-1" source="Q12DMWRrF-jDYy9Bow8n-39" target="Q12DMWRrF-jDYy9Bow8n-46">
          <mxGeometry relative="1" as="geometry" />
        </mxCell>
        <mxCell id="Q12DMWRrF-jDYy9Bow8n-39" value="print result" style="shape=parallelogram;perimeter=parallelogramPerimeter;whiteSpace=wrap;html=1;fixedSize=1;" vertex="1" parent="WIyWlLk6GJQsqaUBKTNV-1">
          <mxGeometry x="860" y="1370" width="120" height="60" as="geometry" />
        </mxCell>
        <mxCell id="Q12DMWRrF-jDYy9Bow8n-48" value="" style="edgeStyle=orthogonalEdgeStyle;rounded=0;orthogonalLoop=1;jettySize=auto;html=1;" edge="1" parent="WIyWlLk6GJQsqaUBKTNV-1" source="Q12DMWRrF-jDYy9Bow8n-40" target="Q12DMWRrF-jDYy9Bow8n-45">
          <mxGeometry relative="1" as="geometry" />
        </mxCell>
        <mxCell id="Q12DMWRrF-jDYy9Bow8n-40" value="print result" style="shape=parallelogram;perimeter=parallelogramPerimeter;whiteSpace=wrap;html=1;fixedSize=1;" vertex="1" parent="WIyWlLk6GJQsqaUBKTNV-1">
          <mxGeometry x="1081" y="1370" width="120" height="60" as="geometry" />
        </mxCell>
        <mxCell id="Q12DMWRrF-jDYy9Bow8n-45" value="Selesai" style="ellipse;whiteSpace=wrap;html=1;" vertex="1" parent="WIyWlLk6GJQsqaUBKTNV-1">
          <mxGeometry x="1081" y="1490" width="120" height="80" as="geometry" />
        </mxCell>
        <mxCell id="Q12DMWRrF-jDYy9Bow8n-46" value="Selesai" style="ellipse;whiteSpace=wrap;html=1;" vertex="1" parent="WIyWlLk6GJQsqaUBKTNV-1">
          <mxGeometry x="860" y="1490" width="120" height="80" as="geometry" />
        </mxCell>
        <mxCell id="Q12DMWRrF-jDYy9Bow8n-56" value="" style="edgeStyle=orthogonalEdgeStyle;rounded=0;orthogonalLoop=1;jettySize=auto;html=1;" edge="1" parent="WIyWlLk6GJQsqaUBKTNV-1" source="Q12DMWRrF-jDYy9Bow8n-53" target="Rb-lbBpFjrk857He8v0L-22">
          <mxGeometry relative="1" as="geometry" />
        </mxCell>
        <mxCell id="Q12DMWRrF-jDYy9Bow8n-57" value="" style="edgeStyle=orthogonalEdgeStyle;rounded=0;orthogonalLoop=1;jettySize=auto;html=1;" edge="1" parent="WIyWlLk6GJQsqaUBKTNV-1" source="Q12DMWRrF-jDYy9Bow8n-53" target="Rb-lbBpFjrk857He8v0L-26">
          <mxGeometry relative="1" as="geometry" />
        </mxCell>
        <mxCell id="Q12DMWRrF-jDYy9Bow8n-58" value="" style="edgeStyle=orthogonalEdgeStyle;rounded=0;orthogonalLoop=1;jettySize=auto;html=1;" edge="1" parent="WIyWlLk6GJQsqaUBKTNV-1" source="Q12DMWRrF-jDYy9Bow8n-53" target="Rb-lbBpFjrk857He8v0L-24">
          <mxGeometry relative="1" as="geometry" />
        </mxCell>
        <mxCell id="Q12DMWRrF-jDYy9Bow8n-53" value="" style="ellipse;whiteSpace=wrap;html=1;aspect=fixed;" vertex="1" parent="WIyWlLk6GJQsqaUBKTNV-1">
          <mxGeometry x="875" y="990" width="90" height="90" as="geometry" />
        </mxCell>
      </root>
    </mxGraphModel>
  </diagram>
</mxfile>
